<svg width="497" height="136" viewBox="0 0 497 136" fill="none" xmlns="http://www.w3.org/2000/svg">
<path d="M35.3637 98H21.5298L21.6171 87.7882H35.3637C38.7968 87.7882 41.6916 87.0172 44.0481 85.4753C46.4047 83.9042 48.1794 81.6204 49.3722 78.6238C50.5941 75.6272 51.2051 72.005 51.2051 67.7574V64.6589C51.2051 61.4005 50.856 58.5348 50.1577 56.0618C49.4886 53.5889 48.4849 51.5087 47.1466 49.8213C45.8083 48.1339 44.1645 46.8683 42.2152 46.0246C40.266 45.1518 38.0258 44.7154 35.4947 44.7154H21.268V34.46H35.4947C39.7423 34.46 43.6263 35.1873 47.1466 36.642C50.696 38.0675 53.7653 40.1186 56.3546 42.7952C58.944 45.4718 60.9369 48.6721 62.3333 52.3961C63.7589 56.0909 64.4717 60.2076 64.4717 64.7462V67.7574C64.4717 72.2669 63.7589 76.3836 62.3333 80.1075C60.9369 83.8315 58.944 87.0318 56.3546 89.7084C53.7944 92.3559 50.7251 94.407 47.1466 95.8616C43.5972 97.2872 39.6696 98 35.3637 98ZM28.9486 34.46V98H15.8566V34.46H28.9486ZM86.4663 50.7814V98H73.8543V50.7814H86.4663ZM73.0688 38.4749C73.0688 36.642 73.7089 35.1291 74.989 33.9363C76.2691 32.7434 77.9856 32.147 80.1385 32.147C82.2623 32.147 83.9643 32.7434 85.2444 33.9363C86.5536 35.1291 87.2082 36.642 87.2082 38.4749C87.2082 40.3077 86.5536 41.8206 85.2444 43.0134C83.9643 44.2063 82.2623 44.8027 80.1385 44.8027C77.9856 44.8027 76.2691 44.2063 74.989 43.0134C73.7089 41.8206 73.0688 40.3077 73.0688 38.4749ZM112.912 88.8356L123.386 50.7814H136.522L120.593 98H112.65L112.912 88.8356ZM105.712 50.7814L116.229 88.8792L116.447 98H108.461L92.5323 50.7814H105.712ZM155.418 50.7814V98H142.806V50.7814H155.418ZM142.02 38.4749C142.02 36.642 142.66 35.1291 143.94 33.9363C145.221 32.7434 146.937 32.147 149.09 32.147C151.214 32.147 152.916 32.7434 154.196 33.9363C155.505 35.1291 156.16 36.642 156.16 38.4749C156.16 40.3077 155.505 41.8206 154.196 43.0134C152.916 44.2063 151.214 44.8027 149.09 44.8027C146.937 44.8027 145.221 44.2063 143.94 43.0134C142.66 41.8206 142.02 40.3077 142.02 38.4749ZM178.111 60.8622V98H165.542V50.7814H177.325L178.111 60.8622ZM176.278 72.7324H172.874C172.874 69.2411 173.325 66.0991 174.227 63.3061C175.129 60.484 176.394 58.0838 178.023 56.1055C179.653 54.098 181.587 52.5706 183.827 51.5233C186.097 50.4468 188.628 49.9086 191.421 49.9086C193.632 49.9086 195.654 50.2286 197.487 50.8687C199.32 51.5087 200.891 52.527 202.2 53.9235C203.538 55.3199 204.557 57.1674 205.255 59.4658C205.982 61.7641 206.346 64.5717 206.346 67.8883V98H193.69V67.8447C193.69 65.7499 193.399 64.1207 192.817 62.957C192.235 61.7932 191.377 60.9786 190.243 60.5131C189.137 60.0185 187.77 59.7712 186.14 59.7712C184.453 59.7712 182.984 60.1058 181.733 60.775C180.511 61.4441 179.493 62.3751 178.678 63.5679C177.892 64.7317 177.296 66.0991 176.889 67.6701C176.481 69.2411 176.278 70.9286 176.278 72.7324ZM241.389 87.3518V66.3173C241.389 64.8044 241.142 63.5097 240.647 62.4333C240.152 61.3277 239.381 60.4695 238.334 59.8585C237.316 59.2476 235.992 58.9421 234.363 58.9421C232.966 58.9421 231.759 59.1894 230.741 59.684C229.722 60.1495 228.937 60.8332 228.384 61.735C227.831 62.6078 227.555 63.6407 227.555 64.8335H214.987C214.987 62.826 215.452 60.9204 216.383 59.1166C217.314 57.3128 218.667 55.7273 220.442 54.3599C222.216 52.9634 224.326 51.8724 226.769 51.0869C229.242 50.3013 232.006 49.9086 235.061 49.9086C238.727 49.9086 241.985 50.5195 244.836 51.7415C247.688 52.9634 249.928 54.7963 251.557 57.2401C253.215 59.684 254.044 62.7388 254.044 66.4045V86.6099C254.044 89.1992 254.204 91.3231 254.525 92.9814C254.845 94.6106 255.31 96.0362 255.921 97.2581V98H243.222C242.611 96.7199 242.145 95.1198 241.825 93.1996C241.534 91.2503 241.389 89.3011 241.389 87.3518ZM243.047 69.2411L243.134 76.3545H236.108C234.45 76.3545 233.01 76.5436 231.788 76.9218C230.566 77.3 229.562 77.8383 228.777 78.5365C227.991 79.2056 227.409 79.9912 227.031 80.8931C226.682 81.795 226.508 82.7841 226.508 83.8606C226.508 84.9371 226.755 85.9117 227.249 86.7845C227.744 87.6282 228.457 88.2973 229.388 88.7919C230.319 89.2574 231.41 89.4902 232.661 89.4902C234.552 89.4902 236.196 89.112 237.592 88.3555C238.989 87.5991 240.065 86.6681 240.822 85.5626C241.607 84.457 242.014 83.4096 242.043 82.4205L245.36 87.7446C244.895 88.9374 244.255 90.1739 243.44 91.454C242.654 92.7341 241.651 93.9415 240.429 95.0761C239.207 96.1817 237.738 97.0981 236.021 97.8254C234.305 98.5237 232.268 98.8728 229.911 98.8728C226.915 98.8728 224.195 98.2764 221.751 97.0836C219.336 95.8616 217.416 94.1888 215.99 92.0649C214.594 89.912 213.896 87.4682 213.896 84.7334C213.896 82.2605 214.361 80.0639 215.292 78.1437C216.223 76.2236 217.59 74.6089 219.394 73.2997C221.227 71.9614 223.511 70.9577 226.246 70.2885C228.98 69.5903 232.152 69.2411 235.759 69.2411H243.047Z" fill="white"/>
<g filter="url(#filter0_d_1_146)">
<path d="M282.4 76.3508H266.21V66.139H282.4C284.902 66.139 286.939 65.7317 288.51 64.9171C290.081 64.0733 291.23 62.9096 291.958 61.4258C292.685 59.9421 293.049 58.2692 293.049 56.4072C293.049 54.5162 292.685 52.756 291.958 51.1268C291.23 49.4975 290.081 48.1883 288.51 47.1992C286.939 46.21 284.902 45.7154 282.4 45.7154H270.748V99H257.656V35.46H282.4C287.375 35.46 291.638 36.3619 295.187 38.1656C298.765 39.9403 301.5 42.3987 303.391 45.5408C305.282 48.6829 306.228 52.276 306.228 56.3199C306.228 60.4221 305.282 63.9715 303.391 66.9681C301.5 69.9648 298.765 72.2777 295.187 73.9069C291.638 75.5362 287.375 76.3508 282.4 76.3508ZM327.742 51.7814V99H315.13V51.7814H327.742ZM314.345 39.4749C314.345 37.642 314.985 36.1291 316.265 34.9363C317.545 33.7434 319.262 33.147 321.415 33.147C323.538 33.147 325.24 33.7434 326.521 34.9363C327.83 36.1291 328.484 37.642 328.484 39.4749C328.484 41.3077 327.83 42.8206 326.521 44.0134C325.24 45.2063 323.538 45.8027 321.415 45.8027C319.262 45.8027 317.545 45.2063 316.265 44.0134C314.985 42.8206 314.345 41.3077 314.345 39.4749ZM375.703 89.181V99H339.831V89.181H375.703ZM375.005 59.0256L344.893 99H336.471V91.5375L366.451 51.7814H375.005V59.0256ZM370.553 51.7814V61.644H337.169V51.7814H370.553ZM421.176 89.181V99H385.304V89.181H421.176ZM420.478 59.0256L390.366 99H381.944V91.5375L411.924 51.7814H420.478V59.0256ZM416.026 51.7814V61.644H382.642V51.7814H416.026ZM454.561 88.3518V67.3173C454.561 65.8044 454.313 64.5097 453.819 63.4333C453.324 62.3277 452.553 61.4695 451.506 60.8585C450.488 60.2476 449.164 59.9421 447.535 59.9421C446.138 59.9421 444.931 60.1894 443.913 60.684C442.894 61.1495 442.109 61.8332 441.556 62.735C441.003 63.6078 440.727 64.6407 440.727 65.8335H428.158C428.158 63.826 428.624 61.9204 429.555 60.1166C430.486 58.3128 431.839 56.7273 433.613 55.3599C435.388 53.9634 437.497 52.8724 439.941 52.0869C442.414 51.3013 445.178 50.9086 448.233 50.9086C451.899 50.9086 455.157 51.5195 458.008 52.7415C460.859 53.9634 463.1 55.7963 464.729 58.2401C466.387 60.684 467.216 63.7388 467.216 67.4045V87.6099C467.216 90.1992 467.376 92.3231 467.696 93.9814C468.016 95.6106 468.482 97.0362 469.093 98.2581V99H456.394C455.783 97.7199 455.317 96.1198 454.997 94.1996C454.706 92.2503 454.561 90.3011 454.561 88.3518ZM456.219 70.2411L456.306 77.3545H449.28C447.622 77.3545 446.182 77.5436 444.96 77.9218C443.738 78.3 442.734 78.8383 441.949 79.5365C441.163 80.2056 440.581 80.9912 440.203 81.8931C439.854 82.795 439.679 83.7841 439.679 84.8606C439.679 85.9371 439.927 86.9117 440.421 87.7845C440.916 88.6282 441.629 89.2973 442.56 89.7919C443.491 90.2574 444.582 90.4902 445.833 90.4902C447.724 90.4902 449.368 90.112 450.764 89.3555C452.161 88.5991 453.237 87.6681 453.993 86.5626C454.779 85.457 455.186 84.4096 455.215 83.4205L458.532 88.7446C458.066 89.9374 457.426 91.1739 456.612 92.454C455.826 93.7341 454.823 94.9415 453.601 96.0761C452.379 97.1817 450.91 98.0981 449.193 98.8254C447.476 99.5237 445.44 99.8728 443.083 99.8728C440.087 99.8728 437.367 99.2764 434.923 98.0836C432.508 96.8616 430.588 95.1888 429.162 93.0649C427.766 90.912 427.067 88.4682 427.067 85.7334C427.067 83.2605 427.533 81.0639 428.464 79.1437C429.395 77.2236 430.762 75.6089 432.566 74.2997C434.399 72.9614 436.683 71.9577 439.418 71.2885C442.152 70.5903 445.324 70.2411 448.931 70.2411H456.219Z" fill="#FF3F4B"/>
</g>
<defs>
<filter id="filter0_d_1_146" x="248.656" y="23.147" width="227.436" height="82.7258" filterUnits="userSpaceOnUse" color-interpolation-filters="sRGB">
<feFlood flood-opacity="0" result="BackgroundImageFix"/>
<feColorMatrix in="SourceAlpha" type="matrix" values="0 0 0 0 0 0 0 0 0 0 0 0 0 0 0 0 0 0 127 0" result="hardAlpha"/>
<feOffset dx="-1" dy="-2"/>
<feGaussianBlur stdDeviation="4"/>
<feComposite in2="hardAlpha" operator="out"/>
<feColorMatrix type="matrix" values="0 0 0 0 0 0 0 0 0 0 0 0 0 0 0 0 0 0 0.5 0"/>
<feBlend mode="normal" in2="BackgroundImageFix" result="effect1_dropShadow_1_146"/>
<feBlend mode="normal" in="SourceGraphic" in2="effect1_dropShadow_1_146" result="shape"/>
</filter>
</defs>
</svg>


